<svg width="40" height="50" viewBox="0 0 40 50" fill="none" xmlns="http://www.w3.org/2000/svg">
<path d="M20 0C8.69113 0 3.79658e-05 8.31222 3.79658e-05 18.8889C-0.00662869 23.4644 0.863377 26.7822 3.64337 30.9411C6.42114 35.0989 20 50 20 50C20 50 33.5789 35.0989 36.3566 30.9411C39.1366 26.7822 40.0066 23.4644 40 18.8889C40 8.31222 31.31 0 20 0Z" fill="#00A5FF"/>
<path d="M20 10H14.981C14.254 10 13.464 10.742 12.961 11.935L12 15" stroke="white" stroke-width="2" stroke-miterlimit="10"/>
<path d="M20 10H25.019C25.746 10 26.536 10.742 27.039 11.935L28 15" stroke="white" stroke-width="2" stroke-miterlimit="10"/>
<path d="M20 16H13L11 15" stroke="white" stroke-width="2" stroke-miterlimit="10"/>
<path d="M20 24H9V18.07C9 17.402 11 15 11 15" stroke="white" stroke-width="2" stroke-miterlimit="10"/>
<path d="M15 24V26C15 26.552 14.552 27 14 27H11C10.448 27 10 26.552 10 26V23" stroke="white" stroke-width="2" stroke-miterlimit="10"/>
<path d="M15 20H11" stroke="white" stroke-width="2" stroke-miterlimit="10"/>
<path d="M11 15L9 13H7" stroke="white" stroke-width="2" stroke-miterlimit="10"/>
<path d="M20 16H27L29 15" stroke="white" stroke-width="2" stroke-miterlimit="10"/>
<path d="M20 24H31V18.07C31 17.402 29 15 29 15" stroke="white" stroke-width="2" stroke-miterlimit="10"/>
<path d="M25 24V26C25 26.552 25.447 27 26 27H29C29.553 27 30 26.552 30 26V23" stroke="white" stroke-width="2" stroke-miterlimit="10"/>
<path d="M25 20H29" stroke="white" stroke-width="2" stroke-miterlimit="10"/>
<path d="M29 15L31 13H33" stroke="white" stroke-width="2" stroke-miterlimit="10"/>
</svg>
